<mxfile host="Electron" modified="2024-04-27T16:13:05.889Z" agent="Mozilla/5.0 (X11; Linux x86_64) AppleWebKit/537.36 (KHTML, like Gecko) draw.io/24.2.5 Chrome/120.0.6099.291 Electron/28.3.1 Safari/537.36" etag="RpOEQdb_K3hZuwO_ucvr" version="24.2.5" type="device">
  <diagram id="C5RBs43oDa-KdzZeNtuy" name="Page-1">
    <mxGraphModel dx="972" dy="992" grid="1" gridSize="10" guides="1" tooltips="1" connect="1" arrows="1" fold="1" page="0" pageScale="1" pageWidth="827" pageHeight="1169" math="0" shadow="0">
      <root>
        <mxCell id="WIyWlLk6GJQsqaUBKTNV-0" />
        <mxCell id="WIyWlLk6GJQsqaUBKTNV-1" parent="WIyWlLk6GJQsqaUBKTNV-0" />
        <mxCell id="HLl2cq0iwVEzuYMqC_iQ-1" value="Node" style="strokeWidth=2;html=1;shape=mxgraph.flowchart.start_1;whiteSpace=wrap;" vertex="1" parent="WIyWlLk6GJQsqaUBKTNV-1">
          <mxGeometry x="370" y="-100" width="100" height="60" as="geometry" />
        </mxCell>
        <mxCell id="HLl2cq0iwVEzuYMqC_iQ-6" value="true" style="edgeStyle=orthogonalEdgeStyle;rounded=0;orthogonalLoop=1;jettySize=auto;html=1;entryX=0;entryY=0.5;entryDx=0;entryDy=0;" edge="1" parent="WIyWlLk6GJQsqaUBKTNV-1" source="HLl2cq0iwVEzuYMqC_iQ-4" target="HLl2cq0iwVEzuYMqC_iQ-8">
          <mxGeometry relative="1" as="geometry">
            <mxPoint x="550" y="50" as="targetPoint" />
          </mxGeometry>
        </mxCell>
        <mxCell id="HLl2cq0iwVEzuYMqC_iQ-7" value="false" style="edgeStyle=orthogonalEdgeStyle;rounded=0;orthogonalLoop=1;jettySize=auto;html=1;entryX=0.5;entryY=0;entryDx=0;entryDy=0;" edge="1" parent="WIyWlLk6GJQsqaUBKTNV-1" source="HLl2cq0iwVEzuYMqC_iQ-4" target="HLl2cq0iwVEzuYMqC_iQ-11">
          <mxGeometry relative="1" as="geometry">
            <mxPoint x="280" y="50" as="targetPoint" />
          </mxGeometry>
        </mxCell>
        <mxCell id="HLl2cq0iwVEzuYMqC_iQ-4" value="if not genisis" style="strokeWidth=2;html=1;shape=mxgraph.flowchart.decision;whiteSpace=wrap;" vertex="1" parent="WIyWlLk6GJQsqaUBKTNV-1">
          <mxGeometry x="370" width="100" height="100" as="geometry" />
        </mxCell>
        <mxCell id="HLl2cq0iwVEzuYMqC_iQ-5" style="edgeStyle=orthogonalEdgeStyle;rounded=0;orthogonalLoop=1;jettySize=auto;html=1;entryX=0.5;entryY=0;entryDx=0;entryDy=0;entryPerimeter=0;" edge="1" parent="WIyWlLk6GJQsqaUBKTNV-1" source="HLl2cq0iwVEzuYMqC_iQ-1" target="HLl2cq0iwVEzuYMqC_iQ-4">
          <mxGeometry relative="1" as="geometry" />
        </mxCell>
        <mxCell id="HLl2cq0iwVEzuYMqC_iQ-10" style="edgeStyle=orthogonalEdgeStyle;rounded=0;orthogonalLoop=1;jettySize=auto;html=1;entryX=0.5;entryY=0;entryDx=0;entryDy=0;" edge="1" parent="WIyWlLk6GJQsqaUBKTNV-1" source="HLl2cq0iwVEzuYMqC_iQ-8" target="HLl2cq0iwVEzuYMqC_iQ-9">
          <mxGeometry relative="1" as="geometry" />
        </mxCell>
        <mxCell id="HLl2cq0iwVEzuYMqC_iQ-8" value="sync blockchain" style="rounded=1;whiteSpace=wrap;html=1;" vertex="1" parent="WIyWlLk6GJQsqaUBKTNV-1">
          <mxGeometry x="520" y="20" width="120" height="60" as="geometry" />
        </mxCell>
        <mxCell id="HLl2cq0iwVEzuYMqC_iQ-12" style="edgeStyle=orthogonalEdgeStyle;rounded=0;orthogonalLoop=1;jettySize=auto;html=1;" edge="1" parent="WIyWlLk6GJQsqaUBKTNV-1" source="HLl2cq0iwVEzuYMqC_iQ-9" target="HLl2cq0iwVEzuYMqC_iQ-11">
          <mxGeometry relative="1" as="geometry" />
        </mxCell>
        <mxCell id="HLl2cq0iwVEzuYMqC_iQ-9" value="sync transactionpool" style="rounded=1;whiteSpace=wrap;html=1;" vertex="1" parent="WIyWlLk6GJQsqaUBKTNV-1">
          <mxGeometry x="520" y="140" width="120" height="60" as="geometry" />
        </mxCell>
        <mxCell id="HLl2cq0iwVEzuYMqC_iQ-14" style="edgeStyle=orthogonalEdgeStyle;rounded=0;orthogonalLoop=1;jettySize=auto;html=1;entryX=0.5;entryY=0;entryDx=0;entryDy=0;" edge="1" parent="WIyWlLk6GJQsqaUBKTNV-1" source="HLl2cq0iwVEzuYMqC_iQ-11" target="HLl2cq0iwVEzuYMqC_iQ-13">
          <mxGeometry relative="1" as="geometry" />
        </mxCell>
        <mxCell id="HLl2cq0iwVEzuYMqC_iQ-11" value="update peers" style="rounded=1;whiteSpace=wrap;html=1;" vertex="1" parent="WIyWlLk6GJQsqaUBKTNV-1">
          <mxGeometry x="360" y="140" width="120" height="60" as="geometry" />
        </mxCell>
        <mxCell id="HLl2cq0iwVEzuYMqC_iQ-16" style="edgeStyle=orthogonalEdgeStyle;rounded=0;orthogonalLoop=1;jettySize=auto;html=1;entryX=0.5;entryY=0;entryDx=0;entryDy=0;" edge="1" parent="WIyWlLk6GJQsqaUBKTNV-1" source="HLl2cq0iwVEzuYMqC_iQ-13" target="HLl2cq0iwVEzuYMqC_iQ-15">
          <mxGeometry relative="1" as="geometry" />
        </mxCell>
        <mxCell id="HLl2cq0iwVEzuYMqC_iQ-13" value="broadcast address" style="rounded=1;whiteSpace=wrap;html=1;" vertex="1" parent="WIyWlLk6GJQsqaUBKTNV-1">
          <mxGeometry x="360" y="230" width="120" height="60" as="geometry" />
        </mxCell>
        <mxCell id="HLl2cq0iwVEzuYMqC_iQ-18" style="edgeStyle=orthogonalEdgeStyle;rounded=0;orthogonalLoop=1;jettySize=auto;html=1;entryX=0.5;entryY=0;entryDx=0;entryDy=0;entryPerimeter=0;" edge="1" parent="WIyWlLk6GJQsqaUBKTNV-1" source="HLl2cq0iwVEzuYMqC_iQ-15" target="HLl2cq0iwVEzuYMqC_iQ-22">
          <mxGeometry relative="1" as="geometry">
            <mxPoint x="420" y="410" as="targetPoint" />
          </mxGeometry>
        </mxCell>
        <mxCell id="HLl2cq0iwVEzuYMqC_iQ-15" value="sync difficulty" style="rounded=1;whiteSpace=wrap;html=1;" vertex="1" parent="WIyWlLk6GJQsqaUBKTNV-1">
          <mxGeometry x="360" y="320" width="120" height="60" as="geometry" />
        </mxCell>
        <mxCell id="HLl2cq0iwVEzuYMqC_iQ-22" value="" style="verticalLabelPosition=bottom;verticalAlign=top;html=1;shape=mxgraph.flowchart.parallel_mode;pointerEvents=1" vertex="1" parent="WIyWlLk6GJQsqaUBKTNV-1">
          <mxGeometry x="372.5" y="410" width="95" height="40" as="geometry" />
        </mxCell>
        <mxCell id="HLl2cq0iwVEzuYMqC_iQ-23" value="miner" style="strokeWidth=2;html=1;shape=mxgraph.flowchart.start_1;whiteSpace=wrap;" vertex="1" parent="WIyWlLk6GJQsqaUBKTNV-1">
          <mxGeometry x="220" y="400" width="100" height="60" as="geometry" />
        </mxCell>
        <mxCell id="HLl2cq0iwVEzuYMqC_iQ-24" style="edgeStyle=orthogonalEdgeStyle;rounded=0;orthogonalLoop=1;jettySize=auto;html=1;entryX=1;entryY=0.5;entryDx=0;entryDy=0;entryPerimeter=0;" edge="1" parent="WIyWlLk6GJQsqaUBKTNV-1" source="HLl2cq0iwVEzuYMqC_iQ-22" target="HLl2cq0iwVEzuYMqC_iQ-23">
          <mxGeometry relative="1" as="geometry" />
        </mxCell>
        <mxCell id="HLl2cq0iwVEzuYMqC_iQ-25" value="listener" style="strokeWidth=2;html=1;shape=mxgraph.flowchart.start_1;whiteSpace=wrap;" vertex="1" parent="WIyWlLk6GJQsqaUBKTNV-1">
          <mxGeometry x="520" y="400" width="100" height="60" as="geometry" />
        </mxCell>
        <mxCell id="HLl2cq0iwVEzuYMqC_iQ-26" style="edgeStyle=orthogonalEdgeStyle;rounded=0;orthogonalLoop=1;jettySize=auto;html=1;entryX=0;entryY=0.5;entryDx=0;entryDy=0;entryPerimeter=0;" edge="1" parent="WIyWlLk6GJQsqaUBKTNV-1" source="HLl2cq0iwVEzuYMqC_iQ-22" target="HLl2cq0iwVEzuYMqC_iQ-25">
          <mxGeometry relative="1" as="geometry" />
        </mxCell>
        <mxCell id="HLl2cq0iwVEzuYMqC_iQ-29" value="match Dtype" style="swimlane;fontStyle=0;childLayout=stackLayout;horizontal=1;startSize=30;horizontalStack=0;resizeParent=1;resizeParentMax=0;resizeLast=0;collapsible=1;marginBottom=0;whiteSpace=wrap;html=1;enumerate=0;" vertex="1" parent="WIyWlLk6GJQsqaUBKTNV-1">
          <mxGeometry x="500" y="580" width="140" height="330" as="geometry">
            <mxRectangle x="500" y="510" width="110" height="30" as="alternateBounds" />
          </mxGeometry>
        </mxCell>
        <mxCell id="HLl2cq0iwVEzuYMqC_iQ-30" value="AddPeer" style="text;strokeColor=none;fillColor=none;align=left;verticalAlign=middle;spacingLeft=4;spacingRight=4;overflow=hidden;points=[[0,0.5],[1,0.5]];portConstraint=eastwest;rotatable=0;whiteSpace=wrap;html=1;" vertex="1" parent="HLl2cq0iwVEzuYMqC_iQ-29">
          <mxGeometry y="30" width="140" height="30" as="geometry" />
        </mxCell>
        <mxCell id="HLl2cq0iwVEzuYMqC_iQ-31" value="AddTransaction" style="text;strokeColor=none;fillColor=none;align=left;verticalAlign=middle;spacingLeft=4;spacingRight=4;overflow=hidden;points=[[0,0.5],[1,0.5]];portConstraint=eastwest;rotatable=0;whiteSpace=wrap;html=1;" vertex="1" parent="HLl2cq0iwVEzuYMqC_iQ-29">
          <mxGeometry y="60" width="140" height="30" as="geometry" />
        </mxCell>
        <mxCell id="HLl2cq0iwVEzuYMqC_iQ-32" value="CheckBlockchain" style="text;strokeColor=none;fillColor=none;align=left;verticalAlign=middle;spacingLeft=4;spacingRight=4;overflow=hidden;points=[[0,0.5],[1,0.5]];portConstraint=eastwest;rotatable=0;whiteSpace=wrap;html=1;" vertex="1" parent="HLl2cq0iwVEzuYMqC_iQ-29">
          <mxGeometry y="90" width="140" height="30" as="geometry" />
        </mxCell>
        <mxCell id="HLl2cq0iwVEzuYMqC_iQ-34" value="GetBlockchain" style="text;strokeColor=none;fillColor=none;align=left;verticalAlign=middle;spacingLeft=4;spacingRight=4;overflow=hidden;points=[[0,0.5],[1,0.5]];portConstraint=eastwest;rotatable=0;whiteSpace=wrap;html=1;" vertex="1" parent="HLl2cq0iwVEzuYMqC_iQ-29">
          <mxGeometry y="120" width="140" height="30" as="geometry" />
        </mxCell>
        <mxCell id="HLl2cq0iwVEzuYMqC_iQ-35" value="GetDifficulty" style="text;strokeColor=none;fillColor=none;align=left;verticalAlign=middle;spacingLeft=4;spacingRight=4;overflow=hidden;points=[[0,0.5],[1,0.5]];portConstraint=eastwest;rotatable=0;whiteSpace=wrap;html=1;" vertex="1" parent="HLl2cq0iwVEzuYMqC_iQ-29">
          <mxGeometry y="150" width="140" height="30" as="geometry" />
        </mxCell>
        <mxCell id="HLl2cq0iwVEzuYMqC_iQ-36" value="GetLatestHash" style="text;strokeColor=none;fillColor=none;align=left;verticalAlign=middle;spacingLeft=4;spacingRight=4;overflow=hidden;points=[[0,0.5],[1,0.5]];portConstraint=eastwest;rotatable=0;whiteSpace=wrap;html=1;" vertex="1" parent="HLl2cq0iwVEzuYMqC_iQ-29">
          <mxGeometry y="180" width="140" height="30" as="geometry" />
        </mxCell>
        <mxCell id="HLl2cq0iwVEzuYMqC_iQ-37" value="GetPoolHash" style="text;strokeColor=none;fillColor=none;align=left;verticalAlign=middle;spacingLeft=4;spacingRight=4;overflow=hidden;points=[[0,0.5],[1,0.5]];portConstraint=eastwest;rotatable=0;whiteSpace=wrap;html=1;" vertex="1" parent="HLl2cq0iwVEzuYMqC_iQ-29">
          <mxGeometry y="210" width="140" height="30" as="geometry" />
        </mxCell>
        <mxCell id="HLl2cq0iwVEzuYMqC_iQ-38" value="GetPeers" style="text;strokeColor=none;fillColor=none;align=left;verticalAlign=middle;spacingLeft=4;spacingRight=4;overflow=hidden;points=[[0,0.5],[1,0.5]];portConstraint=eastwest;rotatable=0;whiteSpace=wrap;html=1;" vertex="1" parent="HLl2cq0iwVEzuYMqC_iQ-29">
          <mxGeometry y="240" width="140" height="30" as="geometry" />
        </mxCell>
        <mxCell id="HLl2cq0iwVEzuYMqC_iQ-39" value="GetTransactionPool" style="text;strokeColor=none;fillColor=none;align=left;verticalAlign=middle;spacingLeft=4;spacingRight=4;overflow=hidden;points=[[0,0.5],[1,0.5]];portConstraint=eastwest;rotatable=0;whiteSpace=wrap;html=1;" vertex="1" parent="HLl2cq0iwVEzuYMqC_iQ-29">
          <mxGeometry y="270" width="140" height="30" as="geometry" />
        </mxCell>
        <mxCell id="HLl2cq0iwVEzuYMqC_iQ-40" value="PostBlock" style="text;strokeColor=none;fillColor=none;align=left;verticalAlign=middle;spacingLeft=4;spacingRight=4;overflow=hidden;points=[[0,0.5],[1,0.5]];portConstraint=eastwest;rotatable=0;whiteSpace=wrap;html=1;" vertex="1" parent="HLl2cq0iwVEzuYMqC_iQ-29">
          <mxGeometry y="300" width="140" height="30" as="geometry" />
        </mxCell>
        <mxCell id="HLl2cq0iwVEzuYMqC_iQ-42" value="" style="rounded=1;whiteSpace=wrap;html=1;" vertex="1" parent="WIyWlLk6GJQsqaUBKTNV-1">
          <mxGeometry x="740" y="655" width="120" height="60" as="geometry" />
        </mxCell>
        <mxCell id="HLl2cq0iwVEzuYMqC_iQ-45" style="edgeStyle=orthogonalEdgeStyle;rounded=0;orthogonalLoop=1;jettySize=auto;html=1;entryX=0.5;entryY=0;entryDx=0;entryDy=0;" edge="1" parent="WIyWlLk6GJQsqaUBKTNV-1" source="HLl2cq0iwVEzuYMqC_iQ-43" target="HLl2cq0iwVEzuYMqC_iQ-29">
          <mxGeometry relative="1" as="geometry" />
        </mxCell>
        <mxCell id="HLl2cq0iwVEzuYMqC_iQ-43" value="receive request" style="verticalLabelPosition=bottom;verticalAlign=top;html=1;shape=mxgraph.flowchart.parallel_mode;pointerEvents=1" vertex="1" parent="WIyWlLk6GJQsqaUBKTNV-1">
          <mxGeometry x="522.5" y="490" width="95" height="40" as="geometry" />
        </mxCell>
        <mxCell id="HLl2cq0iwVEzuYMqC_iQ-44" style="edgeStyle=orthogonalEdgeStyle;rounded=0;orthogonalLoop=1;jettySize=auto;html=1;entryX=0.5;entryY=0;entryDx=0;entryDy=0;entryPerimeter=0;" edge="1" parent="WIyWlLk6GJQsqaUBKTNV-1" source="HLl2cq0iwVEzuYMqC_iQ-25" target="HLl2cq0iwVEzuYMqC_iQ-43">
          <mxGeometry relative="1" as="geometry" />
        </mxCell>
        <mxCell id="HLl2cq0iwVEzuYMqC_iQ-46" style="edgeStyle=orthogonalEdgeStyle;rounded=0;orthogonalLoop=1;jettySize=auto;html=1;entryX=0;entryY=0.5;entryDx=0;entryDy=0;" edge="1" parent="WIyWlLk6GJQsqaUBKTNV-1" source="HLl2cq0iwVEzuYMqC_iQ-32" target="HLl2cq0iwVEzuYMqC_iQ-42">
          <mxGeometry relative="1" as="geometry" />
        </mxCell>
      </root>
    </mxGraphModel>
  </diagram>
</mxfile>
